<svg xmlns="http://www.w3.org/2000/svg" version="1.1" xmlns:xlink="http://www.w3.org/1999/xlink" xmlns:svgjs="http://svgjs.dev/svgjs" width="1500" height="738" viewBox="0 0 1500 738"><g transform="matrix(1,0,0,1,-0.9090883085472115,-0.3865656399275963)"><svg viewBox="0 0 396 195" data-background-color="#000000" preserveAspectRatio="xMidYMid meet" height="738" width="1500" xmlns="http://www.w3.org/2000/svg" xmlns:xlink="http://www.w3.org/1999/xlink"><g id="tight-bounds" transform="matrix(1,0,0,1,0.2399993134564511,0.1021413276231442)"><svg viewBox="0 0 395.52 194.7957173447537" height="194.7957173447537" width="395.52"><g><svg viewBox="0 0 395.52 194.7957173447537" height="194.7957173447537" width="395.52"><g><svg viewBox="0 0 395.52 194.7957173447537" height="194.7957173447537" width="395.52"><g id="textblocktransform"><svg viewBox="0 0 395.52 194.7957173447537" height="194.7957173447537" width="395.52" id="textblock"><g><svg viewBox="0 0 395.52 194.7957173447537" height="194.7957173447537" width="395.52"><g transform="matrix(1,0,0,1,0,0)"><svg width="395.52" viewBox="1.98 -35.99 88.22446397430399 43.46" height="194.7957173447537" data-palette-color="#915eff"><path d="M35.91-26.44L35.91-26.44 31.74-24.68Q31.25-26.27 30.43-27.59 29.61-28.91 28.48-29.85 27.34-30.79 25.9-31.31 24.46-31.84 22.75-31.84L22.75-31.84Q20.92-31.84 19.4-31.23 17.87-30.62 16.66-29.58 15.45-28.54 14.55-27.15 13.65-25.76 13.05-24.18 12.45-22.61 12.15-20.92 11.84-19.24 11.84-17.63L11.84-17.63Q11.84-15.06 12.44-12.52 13.04-9.99 14.34-7.96 15.65-5.93 17.72-4.68 19.8-3.42 22.75-3.42L22.75-3.42Q24.37-3.42 25.27-4.14 26.17-4.86 26.17-6.67L26.17-6.67 26.17-17.46 35.86-17.46 35.86 0 33.06 0 31.35-2.76Q29-0.98 26.18-0.13 23.36 0.71 20.43 0.71L20.43 0.71Q17.85 0.71 15.47 0.07 13.09-0.56 11.04-1.73 8.98-2.91 7.31-4.57 5.64-6.23 4.46-8.25 3.27-10.28 2.62-12.66 1.98-15.04 1.98-17.63L1.98-17.63Q1.98-20.21 2.62-22.6 3.27-24.98 4.46-27.01 5.64-29.05 7.31-30.71 8.98-32.37 11.04-33.54 13.09-34.72 15.47-35.35 17.85-35.99 20.43-35.99L20.43-35.99Q22.92-35.99 25.31-35.4 27.69-34.81 29.74-33.63 31.79-32.45 33.39-30.65 34.99-28.86 35.91-26.44ZM50.19-3.66L50.19-3.66Q50.19-2.73 49.85-1.92 49.51-1.1 48.9-0.5 48.29 0.1 47.48 0.45 46.68 0.81 45.75 0.81L45.75 0.81Q44.82 0.81 44.02 0.45 43.21 0.1 42.6-0.5 41.99-1.1 41.65-1.92 41.31-2.73 41.31-3.66L41.31-3.66Q41.31-4.57 41.65-5.38 41.99-6.2 42.6-6.8 43.21-7.4 44.02-7.75 44.82-8.11 45.75-8.11L45.75-8.11Q46.68-8.11 47.48-7.75 48.29-7.4 48.9-6.8 49.51-6.2 49.85-5.38 50.19-4.57 50.19-3.66ZM90.2-16.82L90.2-16.82 90.2-16.36Q90.16-14.31 89.78-12.11 89.4-9.91 88.72-7.71 88.03-5.52 87.08-3.37 86.13-1.22 84.94 0.74 83.76 2.71 82.39 4.43 81.03 6.15 79.51 7.47L79.51 7.47 75.87 5.37Q76.73 3.93 77.42 2.23 78.12 0.54 78.68-1.32 79.24-3.17 79.65-5.13 80.05-7.08 80.32-9.01 80.59-10.94 80.72-12.81 80.85-14.67 80.85-16.36L80.85-16.36Q80.85-17.68 80.84-19.35 80.83-21.02 80.65-22.75 80.46-24.49 80.05-26.14 79.63-27.78 78.82-29.08 78-30.37 76.72-31.15 75.43-31.93 73.53-31.93L73.53-31.93Q71.85-31.93 70.64-31.36 69.43-30.79 68.59-29.82 67.74-28.86 67.24-27.59 66.74-26.32 66.46-24.91 66.18-23.51 66.1-22.08 66.01-20.65 66.01-19.38L66.01-19.38 66.01-12.57 76.53-12.57 76.53-8.54 66.01-8.54 66.01 0 56.32 0 56.32-17.87Q56.32-21.7 57.54-25 58.76-28.3 60.99-30.73 63.23-33.15 66.36-34.53 69.5-35.91 73.36-35.91L73.36-35.91Q75.97-35.91 78.25-35.17 80.54-34.42 82.42-33.12 84.3-31.81 85.77-30.02 87.25-28.22 88.24-26.1 89.23-23.97 89.74-21.61 90.25-19.24 90.2-16.82Z" opacity="1" transform="matrix(1,0,0,1,0,0)" fill="#915eff" class="wordmark-text-0" data-fill-palette-color="primary" id="text-0"></path></svg></g></svg></g></svg></g></svg></g><g></g></svg></g><defs></defs></svg><rect width="395.52" height="194.7957173447537" fill="none" stroke="none" visibility="hidden"></rect></g></svg></g></svg>